<svg width="20" height="20" viewBox="0 0 20 20" fill="none" xmlns="http://www.w3.org/2000/svg">
<path fill-rule="evenodd" clip-rule="evenodd" d="M0 10C0 5.80863 0 3.71294 1.05041 2.26718C1.38964 1.80026 1.80026 1.38964 2.26718 1.05041C3.71294 0 5.80863 0 10 0C14.1914 0 16.2871 0 17.7328 1.05041C18.1997 1.38964 18.6104 1.80026 18.9496 2.26718C20 3.71294 20 5.80863 20 10C20 14.1914 20 16.2871 18.9496 17.7328C18.6104 18.1997 18.1997 18.6104 17.7328 18.9496C16.2871 20 14.1914 20 10 20C5.80863 20 3.71294 20 2.26718 18.9496C1.80026 18.6104 1.38964 18.1997 1.05041 17.7328C0 16.2871 0 14.1914 0 10ZM9.99999 4.70587C7.07631 4.70587 4.70587 7.07632 4.70587 9.99999C4.70587 12.9237 7.07631 15.2941 9.99999 15.2941C12.9237 15.2941 15.2941 12.9237 15.2941 9.99999C15.2941 7.07632 12.9237 4.70587 9.99999 4.70587ZM9.99999 13.3088C8.17617 13.3088 6.69117 11.8238 6.69117 9.99999C6.69117 8.17484 8.17617 6.69117 9.99999 6.69117C11.8238 6.69117 13.3088 8.17484 13.3088 9.99999C13.3088 11.8238 11.8238 13.3088 9.99999 13.3088ZM17 4.00002C17 4.5523 16.5523 5.00002 16 5.00002C15.4477 5.00002 15 4.5523 15 4.00002C15 3.44773 15.4477 3.00002 16 3.00002C16.5523 3.00002 17 3.44773 17 4.00002Z" fill="black"/>
</svg>
