<svg width="12" height="21" viewBox="0 0 12 21" fill="none" xmlns="http://www.w3.org/2000/svg">
<path d="M5.99985 3.13368C7.22067 3.13368 8.2137 4.12672 8.2137 5.34753C8.2137 6.56732 7.22041 7.56036 5.99985 7.56036C4.7798 7.56036 3.78652 6.56732 3.78652 5.34753C3.78626 4.12646 4.78006 3.13368 5.99985 3.13368ZM5.99985 10.6925C8.94875 10.6925 11.3469 8.29515 11.3469 5.34753C11.3469 2.39838 8.949 0 5.99985 0C3.05121 0 0.652834 2.39863 0.652834 5.34753C0.652834 8.29515 3.05121 10.6925 5.99985 10.6925ZM8.16303 15.0539C9.26299 14.8034 10.3127 14.3688 11.2678 13.7683C11.6194 13.5471 11.8687 13.1953 11.9609 12.7902C12.0531 12.3852 11.9807 11.9601 11.7594 11.6085C11.65 11.4342 11.5073 11.2832 11.3395 11.1641C11.1717 11.0451 10.9821 10.9602 10.7815 10.9145C10.5808 10.8688 10.3732 10.863 10.1703 10.8976C9.9675 10.9322 9.77347 11.0064 9.59934 11.1161C7.40878 12.4933 4.58939 12.4922 2.40062 11.1161C2.22652 11.0064 2.03251 10.9322 1.82968 10.8975C1.62686 10.8629 1.4192 10.8687 1.21859 10.9144C1.01798 10.9601 0.828355 11.045 0.660571 11.1641C0.492787 11.2832 0.350134 11.4342 0.240776 11.6085C0.019496 11.96 -0.0530988 12.385 0.0389576 12.7901C0.131014 13.1951 0.380182 13.547 0.731662 13.7683C1.68668 14.3685 2.73618 14.8032 3.83591 15.0539L0.846833 18.0435C0.553089 18.3373 0.388106 18.7358 0.388178 19.1513C0.38825 19.5668 0.553371 19.9653 0.847217 20.259C1.14106 20.5528 1.53956 20.7177 1.95505 20.7177C2.37054 20.7176 2.76898 20.5525 3.06273 20.2586L5.99934 17.3215L8.93775 20.2589C9.08303 20.4044 9.25558 20.5198 9.44551 20.5986C9.63545 20.6773 9.83905 20.7179 10.0447 20.7179C10.2503 20.7179 10.4539 20.6773 10.6438 20.5986C10.8338 20.5198 11.0063 20.4044 11.1516 20.2589C11.2973 20.1136 11.4129 19.941 11.4918 19.751C11.5707 19.5609 11.6113 19.3572 11.6113 19.1515C11.6113 18.9457 11.5707 18.742 11.4918 18.5519C11.4129 18.3619 11.2973 18.1893 11.1516 18.044L8.16303 15.0539Z" fill="black"/>
</svg>
