<svg width="20" height="13" viewBox="0 0 20 13" fill="none" xmlns="http://www.w3.org/2000/svg">
    <defs>
        <style>.a{fill}.b{fill-rule:evenodd;}</style>
    </defs>
<path clip-rule="evenodd" d="M19.5411 0.827574C19.6802 0.350585 19.5411 0 18.8794 0H16.6914C16.135 0 15.8787 0.302822 15.7396 0.636842C15.7396 0.636842 14.6269 3.42753 13.0505 5.24028C12.5406 5.76503 12.3088 5.9318 12.0306 5.9318C11.8915 5.9318 11.6902 5.76503 11.6902 5.28804V0.827574C11.6902 0.255059 11.5288 0 11.0651 0H7.62678C7.2792 0 7.07009 0.265673 7.07009 0.517515C7.07009 1.06028 7.85808 1.18539 7.93935 2.71189V6.02749C7.93935 6.75439 7.81182 6.88626 7.53363 6.88626C6.7919 6.88626 4.98773 4.08287 3.91748 0.875336C3.70774 0.251842 3.49738 0 2.93819 0H0.750175C0.125029 0 0 0.302822 0 0.636842C0 1.23316 0.741892 4.19094 3.45393 8.10269C5.26217 10.7739 7.80932 12.2222 10.1274 12.2222C11.5183 12.2222 11.6902 11.9006 11.6902 11.3466V9.32749C11.6902 8.68421 11.822 8.55588 12.2622 8.55588C12.587 8.55588 13.1432 8.72281 14.4415 10.0108C15.925 11.5371 16.1694 12.2222 17.004 12.2222H19.192C19.8171 12.2222 20.1297 11.9006 19.9493 11.2658C19.7521 10.6332 19.0438 9.71554 18.1039 8.62744C17.594 8.00716 16.8289 7.33928 16.5973 7.00542C16.2727 6.57604 16.3654 6.38531 16.5973 6.00385C16.5973 6.00385 19.2629 2.13969 19.5411 0.827734V0.827574Z"/>
</svg>
