<svg width="22" height="22" viewBox="0 0 22 22" fill="none" xmlns="http://www.w3.org/2000/svg">
<path d="M10.5546 2.0726C10.7402 1.70898 11.2598 1.70897 11.4454 2.0726L13.6594 6.41109C14.0227 7.12289 14.7043 7.61814 15.4936 7.74366L20.3039 8.50871C20.7071 8.57283 20.8676 9.06697 20.5791 9.35582L17.1372 12.8022C16.5725 13.3676 16.3121 14.169 16.4366 14.9583L17.1955 19.7697C17.2591 20.1729 16.8387 20.4783 16.4749 20.2932L12.1335 18.0847C11.4213 17.7224 10.5787 17.7224 9.86645 18.0847L5.52512 20.2932C5.16126 20.4783 4.74091 20.1729 4.80452 19.7697L5.5634 14.9583C5.6879 14.169 5.42753 13.3676 4.86282 12.8022L1.42086 9.35582C1.13238 9.06697 1.29293 8.57283 1.69611 8.5087L6.50644 7.74366C7.29566 7.61814 7.97731 7.12289 8.34056 6.41109L10.5546 2.0726Z" stroke="#000" fill="none" stroke-width="2"/>
</svg>
