<svg width="22" height="22" viewBox="0 0 22 22" fill="none" xmlns="http://www.w3.org/2000/svg">
<g opacity="0.2">
<path d="M16.1783 5.82168C15.7493 5.39277 15.0538 5.39277 14.6248 5.82168L11.0069 9.4396L7.38896 5.82168C6.95786 5.40531 6.27262 5.41126 5.84882 5.83506C5.42503 6.25885 5.41907 6.9441 5.83544 7.3752L9.45336 10.9931L5.83544 14.611C5.54983 14.8869 5.43529 15.2954 5.53583 15.6795C5.63638 16.0636 5.93637 16.3636 6.32049 16.4642C6.70462 16.5647 7.11311 16.4502 7.38896 16.1646L11.0069 12.5466L14.6248 16.1646C15.0559 16.5809 15.7411 16.575 16.1649 16.1512C16.5887 15.7274 16.5947 15.0421 16.1783 14.611L12.5604 10.9931L16.1783 7.3752C16.6072 6.94617 16.6072 6.25071 16.1783 5.82168Z" fill="black"/>
</g>
</svg>
