<svg width="20" height="20" viewBox="0 0 20 20" fill="none" xmlns="http://www.w3.org/2000/svg">
<path fill-rule="evenodd" clip-rule="evenodd" d="M11.4142 12.8285L10 11.4143L8.58579 12.8285C8.19688 13.2174 7.56048 13.2174 7.17157 12.8285C6.78266 12.4396 6.78266 11.8032 7.17157 11.4143L8.58579 10L7.17157 8.58583C6.78266 8.19692 6.78266 7.56053 7.17157 7.17162C7.56048 6.78271 8.19688 6.78271 8.58579 7.17162L10 8.58583L11.4142 7.17162C11.8031 6.78271 12.4395 6.78271 12.8284 7.17162C13.2173 7.56053 13.2173 8.19692 12.8284 8.58583L11.4142 10L12.8284 11.4143C13.2173 11.8032 13.2173 12.4396 12.8284 12.8285C12.4395 13.2174 11.8031 13.2174 11.4142 12.8285ZM17.0711 2.92898C13.1721 -0.970009 6.82792 -0.970009 2.92893 2.92898C-0.970054 6.82796 -0.970054 13.1721 2.92893 17.0711C6.82792 20.9701 13.1721 20.9701 17.0711 17.0711C20.9701 13.1721 20.9701 6.82796 17.0711 2.92898Z" fill="#000"/>
</svg>
