<svg width="16" height="20" viewBox="0 0 16 20" fill="none" xmlns="http://www.w3.org/2000/svg">
<path d="M16.0001 18C16.0001 19.1046 15.1047 20 14.0001 20H2C0.895431 20 1.02608e-06 19.1046 2.2918e-06 18L2.06262e-05 2.00001C2.18919e-05 0.895441 0.89545 1.33381e-05 2.00002 1.15203e-05L9 0C9.01089 0.000472319 9.02167 0.00249254 9.03199 0.00599998C9.04176 0.00901722 9.05182 0.0110277 9.062 0.012C9.15018 0.0176532 9.23725 0.0347982 9.321 0.0630001L9.349 0.0720001C9.37166 0.079682 9.39372 0.0890412 9.415 0.1C9.52394 0.148424 9.62321 0.216185 9.708 0.3L15.708 6.3C15.7918 6.38479 15.8596 6.48406 15.908 6.593C15.918 6.615 15.925 6.638 15.933 6.661L15.942 6.687C15.9699 6.77039 15.9864 6.85718 15.991 6.945C15.9925 6.95418 15.9949 6.96322 15.998 6.972C15.9998 6.98122 16.0004 6.99062 16.0001 7V18ZM2.99999 2C2.44771 2 1.99999 2.44772 1.99999 3V17C1.99999 17.5523 2.44771 18 2.99999 18H13C13.5523 18 14 17.5523 14 17V9C14 8.44771 13.5523 8 13 8H9C8.44771 8 8 7.55228 8 7V3C8 2.44772 7.55228 2 7 2H2.99999ZM10.3414 3.75542C10.2154 3.62943 10 3.71866 10 3.89684V5.8C10 5.91046 10.0895 6 10.2 6H12.1032C12.2813 6 12.3706 5.78457 12.2446 5.65858L10.3414 3.75542ZM11 13C11 13.5523 10.5523 14 10 14H5.99999C5.44771 14 4.99999 13.5523 4.99999 13C4.99999 12.4477 5.44771 12 5.99999 12H10C10.5523 12 11 12.4477 11 13Z" fill="#000"/>
</svg>
