<svg width="129" height="128" viewBox="0 0 129 128" fill="none" xmlns="http://www.w3.org/2000/svg">
<circle opacity="0.08" cx="65.0002" cy="64" r="49" fill="black"/>
<circle opacity="0.03" cx="64.5" cy="64" r="63.5" stroke="black"/>
<path fill-rule="evenodd" clip-rule="evenodd" d="M62.1382 43.9155C63.0118 43.4237 63.9974 43.1653 65 43.1653C66.0026 43.1653 66.9882 43.4237 67.8618 43.9155C68.7354 44.4074 69.4676 45.1161 69.9875 45.9733L69.9926 45.9816L87.2854 74.8508L87.2997 74.8749C87.809 75.757 88.0785 76.7571 88.0814 77.7756C88.0842 78.7942 87.8203 79.7957 87.3159 80.6806C86.8115 81.5655 86.0842 82.303 85.2063 82.8195C84.3285 83.3361 83.3307 83.6137 82.3122 83.6249L82.2929 83.6252L47.6879 83.625C46.6694 83.6138 45.6715 83.3361 44.7937 82.8195C43.9158 82.303 43.1885 81.5655 42.6841 80.6806C42.1797 79.7957 41.9158 78.7942 41.9187 77.7756C41.9215 76.7571 42.191 75.757 42.7004 74.8749L42.7146 74.8508L60.0075 45.9816L61.5088 46.8809L60.0125 45.9733C60.5325 45.1161 61.2646 44.4074 62.1382 43.9155ZM63.0071 47.785C63.0064 47.7862 63.0057 47.7873 63.005 47.7885L45.7253 76.6356C45.5255 76.9859 45.4198 77.382 45.4186 77.7854C45.4175 78.1928 45.5231 78.5935 45.7248 78.9474C45.9266 79.3014 46.2175 79.5964 46.5687 79.803C46.9174 80.0082 47.3135 80.1192 47.718 80.125H82.2821C82.6865 80.1192 83.0826 80.0082 83.4314 79.803C83.7825 79.5964 84.0734 79.3014 84.2752 78.9474C84.477 78.5935 84.5825 78.1928 84.5814 77.7854C84.5802 77.382 84.4746 76.9859 84.2747 76.6356L66.995 47.7885C66.9943 47.7873 66.9935 47.7861 66.9928 47.7849C66.785 47.4436 66.493 47.1614 66.1447 46.9654C65.7953 46.7686 65.401 46.6653 65 46.6653C64.599 46.6653 64.2047 46.7686 63.8553 46.9654C63.507 47.1615 63.215 47.4437 63.0071 47.785Z" fill="black"/>
<path fill-rule="evenodd" clip-rule="evenodd" d="M65 55.625C65.9665 55.625 66.75 56.4085 66.75 57.375V65.5417C66.75 66.5082 65.9665 67.2917 65 67.2917C64.0335 67.2917 63.25 66.5082 63.25 65.5417V57.375C63.25 56.4085 64.0335 55.625 65 55.625Z" fill="black"/>
<path fill-rule="evenodd" clip-rule="evenodd" d="M65 71C63.896 71 63 71.896 63 73C63 74.104 63.896 75 65 75C66.104 75 67 74.104 67 73C67 71.896 66.104 71 65 71Z" fill="#231F20"/>
</svg>
