<svg width="20" height="20" viewBox="0 0 20 20" fill="none" xmlns="http://www.w3.org/2000/svg">
<path fill-rule="evenodd" clip-rule="evenodd" d="M8.48359 1.18311H8.44464H8.44463C7.35756 1.1831 6.48688 1.18309 5.78311 1.24059C5.06045 1.29964 4.43489 1.42377 3.85904 1.71717C2.93705 2.18695 2.18744 2.93656 1.71766 3.85855C1.42425 4.4344 1.30012 5.05996 1.24108 5.78262C1.18358 6.48639 1.18359 7.35707 1.18359 8.44414V8.44415V8.4831V11.5164V11.5554V11.5554C1.18359 12.6425 1.18358 13.5132 1.24108 14.2169C1.30012 14.9396 1.42425 15.5651 1.71766 16.141C2.18744 17.063 2.93705 17.8126 3.85904 18.2824C4.43489 18.5758 5.06045 18.6999 5.78311 18.759C6.48687 18.8165 7.35752 18.8164 8.44455 18.8164H8.44464H8.48359H11.5169H11.5559H11.556C12.643 18.8164 13.5137 18.8165 14.2174 18.759C14.9401 18.6999 15.5656 18.5758 16.1415 18.2824C17.0635 17.8126 17.8131 17.063 18.2829 16.141C18.5763 15.5651 18.7004 14.9396 18.7594 14.2169C18.8169 13.5132 18.8169 12.6425 18.8169 11.5555V11.5554V11.5164V8.48311V8.44415V8.44407C18.8169 7.35703 18.8169 6.48638 18.7594 5.78263C18.7004 5.05996 18.5763 4.4344 18.2829 3.85855C17.8131 2.93656 17.0635 2.18695 16.1415 1.71717C15.5656 1.42377 14.9401 1.29964 14.2174 1.24059C13.5136 1.18309 12.643 1.1831 11.5559 1.18311H11.5559H11.5169H8.48359ZM4.67622 3.32099C4.95603 3.17842 5.31834 3.08456 5.92969 3.03461C6.55155 2.98381 7.34864 2.98311 8.48359 2.98311H11.5169C12.6519 2.98311 13.449 2.98381 14.0708 3.03461C14.6822 3.08456 15.0445 3.17842 15.3243 3.32099C15.9076 3.61819 16.3818 4.09243 16.679 4.67574C16.8216 4.95554 16.9155 5.31785 16.9654 5.9292C17.0162 6.55106 17.0169 7.34815 17.0169 8.48311V11.5164C17.0169 11.6191 17.0169 11.7191 17.0169 11.8163L15.7817 10.1261C14.9828 9.03282 13.3511 9.03282 12.5521 10.1261L10.8311 12.4812C10.0815 13.507 8.57023 13.5625 7.74743 12.5945C6.96276 11.6713 5.53774 11.6713 4.75307 12.5945L3.0908 14.5501C3.06834 14.4089 3.04982 14.2504 3.0351 14.0703C2.98429 13.4485 2.98359 12.6514 2.98359 11.5164V8.4831C2.98359 7.34815 2.98429 6.55106 3.0351 5.9292C3.08505 5.31785 3.17891 4.95554 3.32147 4.67574C3.61868 4.09243 4.09292 3.61819 4.67622 3.32099ZM8.75027 6.66644C8.75027 7.81703 7.81753 8.74977 6.66694 8.74977C5.51634 8.74977 4.5836 7.81703 4.5836 6.66644C4.5836 5.51584 5.51634 4.5831 6.66694 4.5831C7.81753 4.5831 8.75027 5.51584 8.75027 6.66644Z" fill="black"/>
</svg>
