<svg width="20" height="20" viewBox="0 0 20 20" fill="none" xmlns="http://www.w3.org/2000/svg">
<path d="M10 20C4.47715 20 0 15.5228 0 10C0 4.47715 4.47715 0 10 0C15.5228 0 20 4.47715 20 10C19.9939 15.5203 15.5203 19.9939 10 20ZM2 10.172C2.04732 14.5732 5.64111 18.1095 10.0425 18.086C14.444 18.0622 17.9995 14.4875 17.9995 10.086C17.9995 5.68451 14.444 2.10977 10.0425 2.086C5.64111 2.06246 2.04732 5.59876 2 10V10.172ZM12 14C12 14.5523 11.5523 15 11 15H10.5C9.67157 15 9 14.3284 9 13.5V11.5C9 11.2239 8.77614 11 8.5 11C8.22386 11 8 10.7761 8 10.5V10C8 9.44771 8.44772 9 9 9H9.5C10.3284 9 11 9.67157 11 10.5V12.5C11 12.7761 11.2239 13 11.5 13C11.7761 13 12 13.2239 12 13.5V14ZM11 6C11 6.55228 10.5523 7 10 7C9.44771 7 9 6.55228 9 6C9 5.44772 9.44771 5 10 5C10.5523 5 11 5.44772 11 6Z" fill="#000"/>
</svg>
