<?xml version="1.0" encoding="UTF-8"?>
<svg xmlns="http://www.w3.org/2000/svg" xmlns:xlink="http://www.w3.org/1999/xlink" width="18px" height="16px" viewBox="0 0 18 16" version="1.1">
<g id="surface1">
<path style=" stroke:none;fill-rule:nonzero;fill:rgb(0%,0%,0%);fill-opacity:1;" d="M 13.234375 0 C 10.609375 0.0078125 8.5 2.171875 8.5 4.796875 L 8.5 7 L 1.5 7 C 0.671875 7 0 7.671875 0 8.5 L 0 14.5 C 0 15.328125 0.671875 16 1.5 16 L 12.5 16 C 13.328125 16 14 15.328125 14 14.5 L 14 8.5 C 14 7.671875 13.328125 7 12.5 7 L 11 7 L 11 4.777344 C 11 3.539062 11.992188 2.511719 13.226562 2.5 C 14.476562 2.488281 15.5 3.503906 15.5 4.75 L 15.5 7.25 C 15.5 7.664062 15.835938 8 16.25 8 L 17.25 8 C 17.664062 8 18 7.664062 18 7.25 L 18 4.75 C 18 2.125 15.859375 -0.0078125 13.234375 0 Z M 13.234375 0 "/>
</g>
</svg>
