<svg width="18" height="21" viewBox="0 0 18 21" fill="none" xmlns="http://www.w3.org/2000/svg">
<path d="M2.99334 14.5141C1.80353 13.3258 0.992935 11.8113 0.664104 10.1622C0.335272 8.51303 0.502982 6.80342 1.14602 5.24963C1.78905 3.69584 2.87851 2.3677 4.27656 1.43324C5.6746 0.498783 7.31841 0 9 0C10.6816 0 12.3254 0.498783 13.7234 1.43324C15.1215 2.3677 16.211 3.69584 16.854 5.24963C17.497 6.80342 17.6647 8.51303 17.3359 10.1622C17.0071 11.8113 16.1965 13.3258 15.0067 14.5141L9.67056 19.8597C9.58276 19.9482 9.4783 20.0185 9.36321 20.0664C9.24812 20.1144 9.12468 20.1391 9 20.1391C8.87532 20.1391 8.75188 20.1144 8.63679 20.0664C8.5217 20.0185 8.41724 19.9482 8.32944 19.8597L2.99334 14.5141ZM13.675 13.1825C14.5995 12.2579 15.2291 11.0799 15.4841 9.79747C15.7392 8.51506 15.6082 7.18582 15.1078 5.97784C14.6074 4.76985 13.76 3.73738 12.6729 3.01097C11.5857 2.28456 10.3075 1.89684 9 1.89684C7.69248 1.89684 6.41431 2.28456 5.32714 3.01097C4.23996 3.73738 3.3926 4.76985 2.8922 5.97784C2.3918 7.18582 2.26084 8.51506 2.51587 9.79747C2.77091 11.0799 3.40049 12.2579 4.325 13.1825L9 17.8575L13.675 13.1825ZM9 12.2853C7.99807 12.2853 7.03718 11.8872 6.32871 11.1788C5.62024 10.4703 5.22222 9.5094 5.22222 8.50747C5.22222 7.50555 5.62024 6.54465 6.32871 5.83618C7.03718 5.12771 7.99807 4.7297 9 4.7297C10.0019 4.7297 10.9628 5.12771 11.6713 5.83618C12.3798 6.54465 12.7778 7.50555 12.7778 8.50747C12.7778 9.5094 12.3798 10.4703 11.6713 11.1788C10.9628 11.8872 10.0019 12.2853 9 12.2853ZM9 10.3964C9.50096 10.3964 9.98141 10.1974 10.3356 9.84312C10.6899 9.48888 10.8889 9.00844 10.8889 8.50747C10.8889 8.00651 10.6899 7.52607 10.3356 7.17183C9.98141 6.8176 9.50096 6.61859 9 6.61859C8.49904 6.61859 8.01859 6.8176 7.66435 7.17183C7.31012 7.52607 7.11111 8.00651 7.11111 8.50747C7.11111 9.00844 7.31012 9.48888 7.66435 9.84312C8.01859 10.1974 8.49904 10.3964 9 10.3964Z" fill="#000"/>
</svg>
