<svg width="68" height="69" viewBox="0 0 68 69" fill="none" xmlns="http://www.w3.org/2000/svg">
<path d="M0.5 3C0.5 1.34315 1.84315 0 3.5 0H41.7683C47.8434 0 52.7683 4.92487 52.7683 11V66C52.7683 67.6569 51.4252 69 49.7683 69H11.5C5.42487 69 0.5 64.0751 0.5 58V3Z" fill="black" fill-opacity="0.1"/>
<rect x="11.6343" y="19" width="30" height="4" rx="2" fill="white"/>
<rect x="11.6343" y="33" width="30" height="4" rx="2" fill="white"/>
<rect x="11.6343" y="47" width="30" height="4" rx="2" fill="white"/>
<mask id="path-5-outside-1_116_14705" maskUnits="userSpaceOnUse" x="35.6963" y="18.8486" width="32" height="33" fill="black">
<rect fill="white" x="35.6963" y="18.8486" width="32" height="33"/>
<path fill-rule="evenodd" clip-rule="evenodd" d="M59.8877 30.6001L55.9952 26.6521C55.2275 25.8734 55.2275 24.6225 55.9952 23.8438L57.3748 22.4445C58.1581 21.65 59.4399 21.65 60.2232 22.4445L64.1157 26.3926C64.8834 27.1712 64.8834 28.4222 64.1157 29.2009L62.7361 30.6001C61.9528 31.3946 60.671 31.3946 59.8877 30.6001ZM38.6963 47V42.0233C38.6963 41.4978 38.9031 40.9934 39.2721 40.6192L51.5118 28.2046C52.2951 27.4101 53.577 27.4101 54.3603 28.2046L58.2527 32.1527C59.0205 32.9314 59.0205 34.1823 58.2527 34.961L45.9848 47.4041C45.609 47.7853 45.096 48 44.5606 48H39.6963C39.144 48 38.6963 47.5522 38.6963 47Z"/>
</mask>
<path fill-rule="evenodd" clip-rule="evenodd" d="M59.8877 30.6001L55.9952 26.6521C55.2275 25.8734 55.2275 24.6225 55.9952 23.8438L57.3748 22.4445C58.1581 21.65 59.4399 21.65 60.2232 22.4445L64.1157 26.3926C64.8834 27.1712 64.8834 28.4222 64.1157 29.2009L62.7361 30.6001C61.9528 31.3946 60.671 31.3946 59.8877 30.6001ZM38.6963 47V42.0233C38.6963 41.4978 38.9031 40.9934 39.2721 40.6192L51.5118 28.2046C52.2951 27.4101 53.577 27.4101 54.3603 28.2046L58.2527 32.1527C59.0205 32.9314 59.0205 34.1823 58.2527 34.961L45.9848 47.4041C45.609 47.7853 45.096 48 44.5606 48H39.6963C39.144 48 38.6963 47.5522 38.6963 47Z" fill="#E3E3E3"/>
<path d="M55.9952 26.6521L53.8589 28.7583L53.8589 28.7583L55.9952 26.6521ZM59.8877 30.6001L57.7514 32.7064L59.8877 30.6001ZM55.9952 23.8438L58.1315 25.95L58.1315 25.95L55.9952 23.8438ZM57.3748 22.4445L55.2385 20.3383L55.2385 20.3383L57.3748 22.4445ZM60.2232 22.4445L62.3595 20.3383L62.3595 20.3383L60.2232 22.4445ZM64.1157 26.3926L66.252 24.2863L66.252 24.2863L64.1157 26.3926ZM64.1157 29.2009L66.252 31.3071L66.252 31.3071L64.1157 29.2009ZM62.7361 30.6001L60.5998 28.4939V28.4939L62.7361 30.6001ZM39.2721 40.6192L41.4084 42.7254L41.4084 42.7254L39.2721 40.6192ZM51.5118 28.2046L49.3755 26.0984V26.0984L51.5118 28.2046ZM54.3603 28.2046L52.2239 30.3108L54.3603 28.2046ZM58.2527 32.1527L60.389 30.0465L60.389 30.0465L58.2527 32.1527ZM58.2527 34.961L56.1164 32.8548L58.2527 34.961ZM45.9848 47.4041L43.8485 45.2979L43.8485 45.2979L45.9848 47.4041ZM53.8589 28.7583L57.7514 32.7064L62.024 28.4939L58.1315 24.5458L53.8589 28.7583ZM53.8589 21.7375C51.9396 23.6843 51.9396 26.8116 53.8589 28.7583L58.1315 24.5458C58.5154 24.9352 58.5154 25.5606 58.1315 25.95L53.8589 21.7375ZM55.2385 20.3383L53.8589 21.7375L58.1315 25.95L59.5111 24.5507L55.2385 20.3383ZM62.3595 20.3383C60.4013 18.3521 57.1967 18.3521 55.2385 20.3383L59.5111 24.5507C59.1195 24.9479 58.4785 24.9479 58.0869 24.5507L62.3595 20.3383ZM66.252 24.2863L62.3595 20.3383L58.0869 24.5507L61.9794 28.4988L66.252 24.2863ZM66.252 31.3071C68.1713 29.3603 68.1713 26.2331 66.252 24.2863L61.9794 28.4988C61.5955 28.1094 61.5955 27.484 61.9794 27.0946L66.252 31.3071ZM64.8724 32.7064L66.252 31.3071L61.9794 27.0946L60.5998 28.4939L64.8724 32.7064ZM57.7514 32.7064C59.7096 34.6925 62.9142 34.6925 64.8724 32.7064L60.5998 28.4939C60.9914 28.0967 61.6324 28.0967 62.024 28.4939L57.7514 32.7064ZM35.6963 42.0233V47H41.6963V42.0233H35.6963ZM37.1358 38.5129C36.2134 39.4485 35.6963 40.7095 35.6963 42.0233H41.6963C41.6963 42.2861 41.5929 42.5383 41.4084 42.7254L37.1358 38.5129ZM49.3755 26.0984L37.1358 38.513L41.4084 42.7254L53.6482 30.3108L49.3755 26.0984ZM56.4966 26.0984C54.5384 24.1122 51.3337 24.1122 49.3755 26.0984L53.6482 30.3108C53.2565 30.7081 52.6156 30.7081 52.2239 30.3108L56.4966 26.0984ZM60.389 30.0465L56.4966 26.0984L52.2239 30.3108L56.1164 34.2589L60.389 30.0465ZM60.389 37.0672C62.3084 35.1205 62.3084 31.9932 60.389 30.0465L56.1164 34.2589C55.7326 33.8696 55.7326 33.2441 56.1164 32.8548L60.389 37.0672ZM48.1211 49.5103L60.389 37.0672L56.1164 32.8548L43.8485 45.2979L48.1211 49.5103ZM44.5606 51C45.899 51 47.1815 50.4634 48.1211 49.5103L43.8485 45.2979C44.0364 45.1073 44.2929 45 44.5606 45V51ZM39.6963 51H44.5606V45H39.6963V51ZM35.6963 47C35.6963 49.2091 37.4871 51 39.6963 51V45C40.8009 45 41.6963 45.8954 41.6963 47H35.6963Z" fill="white" mask="url(#path-5-outside-1_116_14705)"/>
</svg>
