<svg width="129" height="128" viewBox="0 0 129 128" fill="none" xmlns="http://www.w3.org/2000/svg">
<circle opacity="0.08" cx="65.0002" cy="64" r="49" fill="black"/>
<circle opacity="0.06" cx="64.5" cy="64" r="63.5" stroke="black"/>
<path fill-rule="evenodd" clip-rule="evenodd" d="M65.8912 62.5042L62.0284 58.6414L57.0018 53.6128L53.8351 50.4482L50.1111 46.7242C49.3128 45.9259 48.0205 45.9259 47.2222 46.7242C46.4259 47.5205 46.4259 48.8128 47.2222 49.6111L50.0315 52.4205L53.0144 55.4013L57.5755 59.9624L60.7319 63.1188L66.324 68.7109L72.0264 74.4133L76.8889 79.2778C77.289 79.6759 77.8117 79.876 78.3323 79.876C78.855 79.876 79.3776 79.6759 79.7778 79.2778C80.5741 78.4795 80.5741 77.1871 79.7778 76.3909L65.8912 62.5042ZM65 76.75C63.871 76.75 62.9583 77.6647 62.9583 78.7916C62.9583 79.9187 63.871 80.8333 65 80.8333C66.129 80.8333 67.0417 79.9187 67.0417 78.7916C67.0417 77.6647 66.129 76.75 65 76.75ZM64.9992 48.1671C72.4472 48.1671 79.497 51.0152 84.8544 56.1888C85.6649 56.9708 85.6874 58.2652 84.9054 59.0757C84.5052 59.4902 83.9703 59.6984 83.4374 59.6984C82.927 59.6984 82.4146 59.5086 82.0185 59.1247C77.4247 54.6923 71.3814 52.2504 64.9992 52.2504C63.033 52.2504 61.1037 52.5097 59.2335 52.9589L55.9362 49.6616C58.8272 48.6979 61.8734 48.1671 64.9992 48.1671ZM48.3077 53.5828C47.2073 54.3791 46.1395 55.2304 45.1452 56.188C44.3346 56.972 44.3122 58.2644 45.0941 59.0749C45.8781 59.8875 47.1746 59.9099 47.9811 59.1259C48.9937 58.148 50.0881 57.2844 51.2314 56.5044L48.3077 53.5828ZM76.7502 67.4456C76.2153 67.4456 75.6803 67.2373 75.2802 66.8228C73.6632 65.1466 71.6521 63.9114 69.4635 63.1907L64.6676 58.3928C64.7188 58.3919 64.7699 58.3878 64.8213 58.3838L64.8213 58.3838C64.8807 58.3791 64.9402 58.3744 65.0004 58.3744C69.9576 58.3744 74.7759 60.4202 78.2181 63.9849C79.0001 64.7975 78.9797 66.0899 78.1671 66.8718C77.7731 67.2557 77.2606 67.4456 76.7502 67.4456ZM55.6728 60.948C54.2559 61.781 52.9349 62.7896 51.7814 63.986C50.9994 64.7966 51.0219 66.091 51.8324 66.873C52.6409 67.657 53.9354 67.6345 54.7194 66.8219C55.8668 65.6337 57.2184 64.6802 58.6822 63.9575L55.6728 60.948ZM57.8589 74.3353C57.0769 73.5247 57.0994 72.2324 57.9099 71.4484C59.4452 69.9641 61.3787 69.0474 63.4571 68.7309L68.596 73.8718C66.2644 72.2079 62.8385 72.3651 60.7458 74.3843C59.9373 75.1703 58.6429 75.1479 57.8589 74.3353Z" fill="black"/>
</svg>
