<svg width="16" height="19" viewBox="0 0 16 19" fill="none" xmlns="http://www.w3.org/2000/svg">
<path d="M3 5C3 2.23858 5.23858 0 8 0C10.7614 0 13 2.23858 13 5C13 7.76142 10.7614 10 8 10C5.23858 10 3 7.76142 3 5ZM8 8C9.65685 8 11 6.65685 11 5C11 3.34315 9.65685 2 8 2C6.34315 2 5 3.34315 5 5C5 6.65685 6.34315 8 8 8Z" fill="#000"/>
<path d="M2.34315 13.3431C1.0799 14.6064 0.282756 16.2486 0.0623925 18.0026C-0.00645391 18.5505 0.447715 19 1 19C1.55228 19 1.9915 18.5492 2.08312 18.0046C2.28871 16.7825 2.86956 15.6452 3.75736 14.7574C4.88258 13.6321 6.4087 13 8 13C9.5913 13 11.1174 13.6321 12.2426 14.7574C13.1304 15.6452 13.7113 16.7825 13.9169 18.0046C14.0085 18.5492 14.4477 19 15 19C15.5523 19 16.0065 18.5505 15.9376 18.0026C15.7172 16.2486 14.9201 14.6064 13.6569 13.3431C12.1566 11.8429 10.1217 11 8 11C5.87827 11 3.84344 11.8429 2.34315 13.3431Z" fill="#000"/>
</svg>
