<svg width="24" height="24" viewBox="0 0 24 24" fill="none" xmlns="http://www.w3.org/2000/svg">
<path fill-rule="evenodd" clip-rule="evenodd" d="M18.1262 6.84618L13.3999 4.11746C12.4087 3.54521 12.2892 3.50301 12.2078 3.48572C12.0707 3.45658 11.9291 3.45658 11.792 3.48572C11.7106 3.50301 11.5911 3.54521 10.5999 4.11746L5.87363 6.84618C4.88247 7.41843 4.78615 7.50087 4.73049 7.56269C4.63672 7.66683 4.56588 7.78952 4.52258 7.9228C4.49687 8.00191 4.47363 8.12655 4.47363 9.27105L4.47363 14.7285C4.47363 15.873 4.49687 15.9976 4.52258 16.0767C4.56588 16.21 4.63672 16.3327 4.73049 16.4368C4.78615 16.4987 4.88247 16.5811 5.87363 17.1534L10.5999 19.8821C11.5911 20.4543 11.7106 20.4965 11.792 20.5138C11.9291 20.5429 12.0707 20.5429 12.2078 20.5138C12.2892 20.4965 12.4087 20.4543 13.3999 19.8821L18.1262 17.1534C19.1174 16.5811 19.2137 16.4987 19.2693 16.4368C19.3631 16.3327 19.4339 16.21 19.4772 16.0767C19.503 15.9976 19.5262 15.873 19.5262 14.7285V9.27105C19.5262 8.12655 19.503 8.00191 19.4772 7.9228C19.4339 7.78952 19.3631 7.66683 19.2693 7.56269C19.2137 7.50087 19.1174 7.41843 18.1262 6.84618ZM11.3762 1.52942C10.9114 1.62821 10.4742 1.88061 9.59991 2.38541L4.87363 5.11413C3.9993 5.61892 3.56214 5.87132 3.2442 6.22442C2.96288 6.53686 2.75038 6.90492 2.62046 7.30477C2.47363 7.75666 2.47363 8.26146 2.47363 9.27105L2.47363 14.7285C2.47363 15.7381 2.47363 16.2429 2.62046 16.6948C2.75038 17.0946 2.96288 17.4627 3.2442 17.7751C3.56214 18.1282 3.9993 18.3806 4.87363 18.8854L9.59991 21.6141C10.4742 22.1189 10.9114 22.3713 11.3762 22.4701C11.7874 22.5575 12.2124 22.5575 12.6236 22.4701C13.0884 22.3713 13.5256 22.1189 14.3999 21.6141L19.1262 18.8854C20.0005 18.3806 20.4377 18.1282 20.7556 17.7751C21.0369 17.4627 21.2494 17.0946 21.3794 16.6948C21.5262 16.2429 21.5262 15.7381 21.5262 14.7285V9.27105C21.5262 8.26146 21.5262 7.75666 21.3794 7.30477C21.2494 6.90492 21.0369 6.53686 20.7556 6.22442C20.4377 5.87132 20.0005 5.61892 19.1262 5.11413L14.3999 2.38541C13.5256 1.88061 13.0884 1.62821 12.6236 1.52942C12.2124 1.44201 11.7874 1.44201 11.3762 1.52942Z" fill="black"/>
<circle cx="12" cy="12" r="3" stroke="black" stroke-width="2"/>
</svg>
