<svg width="14" height="15" viewBox="0 0 14 15" fill="none" xmlns="http://www.w3.org/2000/svg">
<path d="M5.66393 1.61804C6.22064 0.527164 7.77936 0.527164 8.33607 1.61804L9.35107 3.60693C9.56902 4.03401 9.97801 4.33116 10.4515 4.40647L12.6567 4.75718C13.8663 4.94955 14.3479 6.43198 13.4825 7.29855L11.9046 8.87846C11.5658 9.21773 11.4095 9.69852 11.4842 10.1721L11.8321 12.3778C12.0229 13.5876 10.7619 14.5037 9.67032 13.9484L7.68013 12.936C7.25277 12.7186 6.74723 12.7186 6.31987 12.936L4.32968 13.9484C3.23809 14.5037 1.97706 13.5876 2.16787 12.3778L2.51576 10.1721C2.59047 9.69852 2.43425 9.21773 2.09542 8.87847L0.517527 7.29855C-0.347926 6.43198 0.133746 4.94955 1.34326 4.75718L3.54846 4.40647C4.02199 4.33116 4.43098 4.03401 4.64893 3.60693L5.66393 1.61804Z" fill="#000"/>
</svg>
