<svg width="88" height="88" viewBox="0 0 88 88" fill="none" xmlns="http://www.w3.org/2000/svg">
<circle opacity="0.05" cx="44" cy="44" r="44" fill="black"/>
<path opacity="0.15" d="M24.2409 29.7478L24.2409 29.7476C25.7627 20.0288 34.3804 18.3763 35.7738 18.1715C35.8753 18.1566 35.9732 18.125 36.063 18.0777C40.9659 15.4987 45.2514 14.768 48.9056 15.3255C52.5604 15.8831 55.5581 17.7255 57.8908 20.2469C62.5463 25.279 64.5742 33.0362 63.9353 38.8189C63.6279 41.6795 62.904 44.4785 61.7877 47.1274C61.7147 47.3007 61.6478 47.476 61.5792 47.6561C61.5626 47.6997 61.5458 47.7436 61.5289 47.7878C61.4429 48.012 61.3522 48.2416 61.2463 48.4667C61.1597 48.6506 61.0609 48.8287 60.9504 48.9998C60.8629 49.1352 60.7824 49.2651 60.7147 49.3986C59.5893 51.6162 58.1169 53.6381 56.3546 55.3882C56.15 55.5913 55.874 55.5888 55.6749 55.476C55.4795 55.3654 55.3354 55.1381 55.3702 54.8682C55.3732 54.8456 55.3682 54.8335 55.3631 54.8255C55.3566 54.8153 55.3433 54.8024 55.3209 54.7929C55.2738 54.7728 55.2194 54.7801 55.1812 54.8159C54.3671 55.5786 53.4354 56.2089 52.4199 56.6813L52.4153 56.6834L52.4153 56.6834C51.2944 57.1777 50.1449 57.6045 48.973 57.9617C48.1896 58.2029 47.6322 58.9141 47.6322 59.7169V60.1382C47.6338 60.3617 47.7196 60.5764 47.8725 60.7394C48.0256 60.9026 48.2347 61.002 48.458 61.0177C48.458 61.0177 48.458 61.0177 48.458 61.0177L55.4454 61.4869C55.4456 61.4869 55.4458 61.4869 55.446 61.4869C56.589 61.5595 57.6617 62.0639 58.4466 62.8979C59.2317 63.7321 59.6703 64.8336 59.6734 65.9791V65.9798C59.6734 68.3994 57.8975 70.458 55.504 70.8129C48.5989 71.8366 47.9701 71.838 43.8876 71.838C39.8368 71.838 39.31 71.8365 32.3914 70.8113C29.9984 70.4567 28.2217 68.3991 28.2217 65.9798V65.9791C28.2248 64.8336 28.6633 63.7321 29.4484 62.8979C30.2334 62.0639 31.306 61.5595 32.4491 61.4869L32.4487 61.487L32.4654 61.7364L32.4496 61.4869L24.2409 29.7478ZM24.2409 29.7478C23.8792 32.0688 23.8712 33.9715 24.1277 35.595C24.3556 37.0374 24.7396 38.464 25.1193 39.8742C25.226 40.2704 25.3323 40.6654 25.4347 41.059C25.904 42.8626 26.2947 44.6495 26.2947 46.4702L26.2947 46.4717C26.3012 47.6125 26.7179 48.713 27.4686 49.572C28.1021 50.2969 28.8537 50.9556 29.5913 51.6019C29.6297 51.6356 29.668 51.6692 29.7063 51.7028C30.486 52.3865 31.2435 53.0606 31.8607 53.8083C32.8572 55.0156 34.1143 56.0007 35.5537 56.6807L35.5536 56.6807L35.5584 56.6829C36.6542 57.1729 37.776 57.6028 38.9186 57.9706L38.9221 57.9717C39.7066 58.2118 40.2629 58.9135 40.2629 59.7142V60.1382L24.2409 29.7478ZM39.437 61.0177L39.4545 61.2671L39.4378 61.0177L39.4371 61.0177C39.437 61.0177 39.437 61.0177 39.437 61.0177ZM48.463 62.495L48.4646 62.4951C48.7389 62.5125 48.9522 62.6594 49.055 62.8383C49.1531 63.0091 49.1564 63.2146 49.0022 63.4057C48.2712 64.3111 46.8234 65.365 43.9835 65.4103C41.1261 65.4559 39.6727 64.3648 38.9479 63.4254C38.7947 63.2268 38.8012 63.0164 38.9039 62.8426C39.0112 62.6609 39.2304 62.5128 39.5103 62.4951L39.5119 62.495C40.1143 62.4529 40.6786 62.1849 41.0919 61.7447C41.5053 61.3045 41.7372 60.7245 41.7414 60.1206V60.1189V58.9746C41.7414 58.786 41.9053 58.6392 42.0928 58.6601L42.1065 58.6616H42.1204H42.5797C42.7826 58.6616 42.9896 58.6781 43.21 58.6957L43.211 58.6958C43.4275 58.7131 43.6567 58.7315 43.8876 58.7315H44.0773H44.0816C44.376 58.7315 44.6761 58.7315 44.9762 58.7106C45.0456 58.7058 45.1138 58.7007 45.181 58.6956C45.4118 58.6782 45.6319 58.6616 45.8545 58.6616H45.8684L45.8821 58.6601C46.0696 58.6392 46.2336 58.786 46.2336 58.9746L46.2336 60.1189L46.2336 60.1206C46.2377 60.7245 46.4696 61.3045 46.883 61.7447C47.2963 62.1849 47.8606 62.4529 48.463 62.495ZM48.6022 56.5366L48.6011 56.537C48.0224 56.7299 47.4324 56.8872 46.8345 57.0081C45.2166 57.3217 43.5575 57.3615 41.9265 57.1258L41.9265 57.1254L41.9131 57.1242C41.6405 57.0998 41.3695 57.0611 41.101 57.0082C40.5069 56.8871 39.92 56.733 39.3431 56.5467C38.2591 56.1832 37.1949 55.7635 36.1546 55.2891C33.966 54.2653 32.264 52.427 31.4114 50.1661L31.4114 50.1661L31.4096 50.1615L31.4047 50.1493L31.1726 50.2422L31.4047 50.1493C31.2987 49.8842 31.0438 49.7092 30.759 49.7049C29.9463 49.6401 29.1874 49.2726 28.6325 48.6749C28.0759 48.0753 27.7655 47.288 27.7632 46.4699V44.1929C27.7632 43.9465 27.9123 43.756 28.109 43.6716C28.3031 43.5882 28.5235 43.6155 28.6819 43.7901C29.0321 44.1761 29.5609 44.202 29.9656 44.038C30.3706 43.8738 30.7307 43.4864 30.6972 42.9615C30.6377 42.0286 30.6288 41.0926 30.6709 40.1575C30.7249 40.1047 30.7585 40.0309 30.7585 39.9494V39.006C31.0252 36.6492 31.7884 34.3287 33.5578 33.0472C34.0808 32.6684 34.7632 32.5705 35.4625 32.6197C36.5083 32.6934 37.4868 33.1745 38.3016 33.8745C40.5282 35.7874 43.1061 37.0714 45.5571 38.2923C46.4144 38.7193 47.2561 39.1385 48.0619 39.5743C51.1898 41.2658 53.8156 43.217 54.9737 46.8449C56.0069 50.0812 54.811 53.8738 51.79 55.2893C50.7516 55.7644 49.6874 56.1809 48.6022 56.5366Z" fill="black" stroke="black" stroke-width="0.5"/>
</svg>
